<svg width="29" height="29" viewBox="0 0 29 29" fill="none" xmlns="http://www.w3.org/2000/svg">
<path fill-rule="evenodd" clip-rule="evenodd" d="M21.9998 13.3845C21.9998 10.5666 19.4118 6.51602 14.4117 6.51602C9.8823 6.51602 6.82365 10.3907 6.82365 14.3826C6.82365 19.1377 10.1176 22.5423 15.7646 22.5423H26.4704C23.9408 26.4755 19.5293 29 14.4705 29C6.47048 29 0 22.4836 0 14.4998C0 6.51602 6.47048 0 14.4705 0C22.4704 0 29 6.51602 29 14.4998C29 16.0849 28.7059 17.6113 28.294 19.0201H12.1175V17.435L17.8232 17.2592C20.7056 17.1416 21.9998 15.6741 21.9998 13.3845Z" fill="#000B26"/>
</svg>
